# File produced by Open Asset Import Library (http://www.assimp.sf.net)
# (assimp v3.1.187496374)

mtllib bit_yes_up.obj.mtl

# 6 vertex positions
v  0 0 35.3553
v  35.3553 0 0
v  0 35.3553 0
v  -35.3553 0 0
v  0 -35.3553 0
v  0 0 -35.3553

# 0 UV coordinates

# 8 vertex normals
vn 0.57735 0.57735 0.57735
vn -0.57735 0.57735 0.57735
vn -0.57735 -0.57735 0.57735
vn 0.57735 -0.57735 0.57735
vn 0.57735 -0.57735 -0.57735
vn -0.57735 -0.57735 -0.57735
vn -0.57735 0.57735 -0.57735
vn 0.57735 0.57735 -0.57735

# Mesh 'OpenSCAD_Model' with 8 faces
g OpenSCAD_Model
usemtl DefaultMaterial
f  1//1 2//1 3//1
f  1//2 3//2 4//2
f  1//3 4//3 5//3
f  1//4 5//4 2//4
f  6//5 2//5 5//5
f  6//6 5//6 4//6
f  6//7 4//7 3//7
f  6//8 3//8 2//8

